<?xml version="1.0" encoding="UTF-8"?>
<!DOCTYPE svg PUBLIC "-//W3C//DTD SVG 1.1//EN" "http://www.w3.org/Graphics/SVG/1.1/DTD/svg11.dtd">
<!-- Creator: CorelDRAW 2019 (64-Bit) -->
<svg xmlns="http://www.w3.org/2000/svg" xml:space="preserve" width="138.895mm" height="27.7351mm" version="1.1" style="shape-rendering:geometricPrecision; text-rendering:geometricPrecision; image-rendering:optimizeQuality; fill-rule:evenodd; clip-rule:evenodd"
viewBox="0 0 12257.9 2447.71"
 xmlns:xlink="http://www.w3.org/1999/xlink">
 <defs>
  <style type="text/css">
   <![CDATA[
    .fil2 {fill:#F5B500;fill-rule:nonzero}
    .fil1 {fill:white;fill-rule:nonzero}
    .fil0 {fill:url(#id0);fill-rule:nonzero}
   ]]>
  </style>
  <linearGradient id="id0" gradientUnits="userSpaceOnUse" x1="358.46" y1="2089.25" x2="2089.25" y2="358.47">
   <stop offset="0" style="stop-opacity:1; stop-color:#E1A100"/>
   <stop offset="0.501961" style="stop-opacity:1; stop-color:#F5B500"/>
   <stop offset="1" style="stop-opacity:1; stop-color:#FFBF00"/>
  </linearGradient>
 </defs>
 <g id="Слой_x0020_1">
  <metadata id="CorelCorpID_0Corel-Layer"/>
  <g id="_1847211231072">
   <path class="fil0" d="M611.2 0l1225.3 0c336.16,0 611.2,275.04 611.2,611.2l0 1225.3c0,336.16 -275.05,611.2 -611.2,611.2l-1225.3 0c-336.16,0 -611.2,-275.04 -611.2,-611.2l0 -1225.3c0,-336.16 275.04,-611.2 611.2,-611.2z"/>
   <path class="fil1" d="M1504.93 790.88l0 196.18 2.8 109.28 14.01 92.48c3.73,24.3 5.6,43.91 5.6,58.86l0 33.63c3.74,26.15 5.6,50.44 5.6,72.86 14.95,14.94 21.48,31.76 19.62,50.45l-2.81 56.04c9.35,9.35 22.42,42.5 39.23,99.49 16.82,56.98 28.03,85.47 33.63,85.47 16.81,0 42.97,-40.16 78.47,-120.5l128.91 -291.45c59.79,-132.65 98.09,-231.67 114.91,-297.07 0,-87.8 5.6,-147.59 16.81,-179.35 18.68,-54.18 56.98,-92.48 114.9,-114.9l42.03 -16.81c24.29,1.86 36.43,25.21 36.43,70.06 0.01,13.08 -5.6,47.64 -16.81,103.69 -14.94,74.73 -28.02,114.91 -39.24,120.5 0,20.56 -18.68,79.4 -56.04,176.55l-128.91 336.3c-44.83,117.7 -97.15,224.19 -156.94,319.48 5.6,13.08 8.4,27.08 8.4,42.03 0,22.43 -14.01,47.18 -42.03,74.27 -28.02,27.08 -43.91,43.44 -47.64,49.04 -35.5,42.97 -66.33,69.12 -92.48,78.47l-53.25 8.4c-56.05,0 -84.07,-22.42 -84.07,-67.25 0,-28.03 14.01,-56.05 42.03,-84.08l-47.64 -114.9 -16.81 -100.89c-11.21,-7.47 -22.43,-33.62 -33.62,-78.47 -9.35,-39.23 -14.01,-70.06 -14.01,-92.47 -20.55,-56.06 -32.7,-102.76 -36.44,-140.13l0.01 -2.53c-22.36,198.56 -48.15,352.6 -77.34,462.13 -3.74,20.55 -10.28,44.84 -19.63,72.86l-36.43 64.46 -70.06 33.62c-20.55,14.95 -42.03,22.43 -64.46,22.43 -44.83,0 -99.95,-76.6 -165.34,-229.8l-148.52 -350.3 -61.65 -140.12c-28.03,-63.52 -45.78,-99.01 -53.24,-106.49 -11.21,11.21 -27.09,51.37 -47.64,120.5l-61.66 210.18c-35.49,134.51 -59.78,227.92 -72.86,280.23l-75.67 260.63c-5.6,16.81 -17.27,27.09 -35.02,30.83 -17.76,3.74 -28.5,9.34 -32.24,16.82 -16.81,-7.48 -25.22,-22.43 -25.22,-44.84l8.41 -53.24c9.35,-61.65 17.75,-106.49 25.22,-134.52 1.87,-26.15 6.54,-60.72 14.01,-103.68 24.3,-164.42 40.17,-252.22 47.65,-263.44 16.81,-80.34 31.75,-185.9 44.84,-316.67 22.43,-222.33 39.24,-344.69 50.44,-367.11l-2.8 -30.83c0,-42.97 6.54,-81.27 19.61,-114.9 7.48,-29.89 18.69,-44.84 33.63,-44.84l5.6 0 56.06 -8.4c41.09,0 62.58,8.4 64.45,25.22l16.81 -11.22c20.55,-13.08 34.56,-23.35 42.03,-30.82 35.51,-31.77 60.73,-47.65 75.68,-47.65 16.81,1.86 25.22,17.75 25.22,47.65l-56.05 156.93c-7.48,20.55 -11.22,51.38 -11.22,92.48l58.86 184.95c20.55,63.52 43.91,123.31 70.06,179.36 13.07,46.71 22.42,81.27 28.02,103.69l92.48 224.2c57.92,141.98 98.08,217.65 120.51,227 9.34,-14.95 21.47,-70.06 36.42,-165.34l47.64 -302.66c3.74,-24.29 9.35,-156 16.82,-395.14 3.73,-101.03 19.56,-193.73 47.44,-278.1 8.07,-64.95 29.25,-121.72 63.52,-170.29l75.67 -36.42c22.42,-11.22 42.03,-16.81 58.85,-16.81 18.69,0 30.83,8.4 36.44,25.22 13.08,13.06 19.61,45.77 19.61,98.08l-11.21 123.31 -19.62 109.29 11.22 58.85z"/>
   <polygon class="fil2" points="3330.56,489.56 4463.82,489.56 4463.82,755.52 4035.96,755.52 4035.96,1946.6 3758.42,1946.6 3758.42,755.52 3330.56,755.52 "/>
   <path id="1" class="fil2" d="M4839.65 1946.6l-265.98 0 0 -1063.88 265.98 0 0 1063.88zm-127.21 -1202.64c-40.08,0 -75.17,-15.04 -105.23,-45.1 -30.06,-30.07 -45.1,-65.15 -45.1,-105.23 0,-40.09 15.04,-75.17 45.1,-105.23 30.07,-30.07 65.15,-45.1 105.23,-45.1 40.09,0 75.17,15.03 105.23,45.1 30.07,30.07 45.1,65.14 45.1,105.23 0,40.08 -15.03,75.17 -45.1,105.23 -30.07,30.06 -65.14,45.1 -105.23,45.1z"/>
   <path id="2" class="fil2" d="M5539.27 871.16c53.97,0 100.22,7.32 138.76,21.97 38.55,14.64 70.16,30.45 94.83,47.41 27.76,20.04 50.11,43.17 67.07,69.38 24.67,-26.21 53.19,-49.34 85.57,-69.38 27.76,-16.96 60.9,-32.77 99.45,-47.41 38.54,-14.65 80.95,-21.97 127.2,-21.97 115.64,0 208.15,37 277.54,111.01 69.38,74.01 104.07,183.48 104.07,328.42l0 636.01 -265.97 0 0 -612.88c0,-64.76 -17.34,-115.65 -52.03,-152.65 -34.69,-37 -75.17,-55.5 -121.42,-55.5 -46.26,0 -86.74,18.5 -121.43,55.5 -34.69,37 -52.03,87.89 -52.03,152.65l0 612.88 -265.97 0 0 -612.88c0,-64.76 -17.35,-115.65 -52.04,-152.65 -34.68,-37 -75.17,-55.5 -121.42,-55.5 -46.25,0 -86.73,18.5 -121.42,55.5 -34.69,37 -52.03,87.89 -52.03,152.65l0 612.88 -265.98 0 0 -1063.88 196.59 0 46.25 104.08c21.59,-21.59 45.49,-40.85 71.7,-57.81 21.59,-13.88 47.8,-26.99 78.63,-39.32 30.84,-12.34 65.53,-18.51 104.08,-18.51z"/>
   <path id="3" class="fil2" d="M7672.8 1622.81c-13.88,40.09 -35.08,80.18 -63.6,120.27 -28.52,40.08 -63.22,75.93 -104.08,107.54 -40.85,31.61 -87.11,57.44 -138.76,77.49 -51.65,20.04 -107.55,30.06 -167.68,30.06 -72.46,0 -140.69,-14.26 -204.68,-42.79 -63.99,-28.52 -120.27,-67.45 -168.84,-116.79 -48.57,-49.34 -87.11,-106.77 -115.64,-172.31 -28.52,-65.53 -42.79,-136.07 -42.79,-211.61 0,-75.55 14.26,-146.09 42.79,-211.62 28.52,-65.53 67.07,-122.96 115.64,-172.31 48.57,-49.33 104.84,-88.27 168.84,-116.79 63.98,-28.52 132.21,-42.79 204.68,-42.79 69.38,0 134.91,13.11 196.58,39.32 61.68,26.21 115.64,63.22 161.9,111.01 46.25,47.8 82.87,105.23 109.86,172.31 26.98,67.07 40.47,140.69 40.47,220.87 0,12.33 -0.78,24.28 -2.31,35.85 -1.54,11.56 -3.09,22.74 -4.62,33.54 -1.54,12.33 -3.09,23.9 -4.63,34.69l-740.08 0c12.33,52.42 38.54,96.36 78.63,131.82 40.08,35.46 94.82,53.19 164.2,53.19 35.46,0 65.15,-3.85 89.05,-11.56 23.89,-7.7 44.32,-16.96 61.28,-27.76 18.51,-12.33 33.92,-26.21 46.25,-41.63l277.54 0zm-474.12 -497.24c-69.38,0 -126.04,20.04 -169.98,60.14 -43.95,40.08 -72.09,89.43 -84.42,148.02l508.81 0c-12.34,-58.59 -40.47,-107.93 -84.41,-148.02 -43.95,-40.09 -100.61,-60.14 -169.99,-60.14z"/>
   <path id="4" class="fil2" d="M7967.69 628.33l231.28 0 0 254.4 231.28 0 0 242.85 -231.28 0 0 439.43c0,46.25 13.49,82.87 40.47,109.86 26.98,26.98 63.6,40.47 109.86,40.47 12.33,0 22.35,-0.39 30.07,-1.16 7.7,-0.78 14.64,-1.93 20.81,-3.47 6.17,-1.54 12.34,-3.86 18.51,-6.95l0 231.28c-10.79,4.62 -23.13,8.48 -37,11.56 -26.21,7.71 -56.28,11.56 -90.2,11.56 -52.42,0 -100.61,-8.86 -144.55,-26.59 -43.94,-17.74 -81.71,-43.56 -113.33,-77.48 -31.6,-33.92 -56.28,-74.01 -74.01,-120.27 -17.73,-46.25 -26.59,-98.68 -26.59,-157.27l0 -450.99 -161.9 0 0 -219.71 69.38 0c84.8,0 127.21,-42.4 127.21,-127.2l0 -150.33z"/>
   <path id="5" class="fil2" d="M9014.22 871.16c60.14,0 115.64,10.41 166.52,31.22 50.88,20.82 94.82,49.72 131.82,86.73 37,37 65.92,80.95 86.74,131.83 20.81,50.88 31.22,106.39 31.22,166.52l0 659.14 -196.58 0 -46.25 -104.08c-24.67,21.59 -51.65,40.86 -80.95,57.82 -26.21,15.42 -57.82,28.91 -94.83,40.47 -37,11.56 -78.63,17.34 -124.89,17.34 -115.64,0 -204.3,-28.14 -265.97,-84.41 -61.68,-56.28 -92.52,-128.36 -92.52,-216.25 0,-52.42 10.41,-100.6 31.22,-144.55 20.82,-43.94 55.89,-81.71 105.23,-113.33 49.33,-31.6 114.48,-56.28 195.43,-74.01 80.95,-17.73 182.32,-26.59 304.13,-26.59 0,-58.59 -15.81,-104.08 -47.41,-136.46 -31.61,-32.38 -73.62,-48.57 -126.04,-48.57 -35.47,0 -63.6,6.17 -84.42,18.5 -20.81,12.34 -37.38,25.44 -49.72,39.32 -13.87,16.96 -23.13,36.24 -27.76,57.82l-265.97 0c6.17,-49.34 20.43,-95.6 42.79,-138.77 22.36,-43.17 52.81,-80.95 91.36,-113.33 38.54,-32.38 84.41,-58.2 137.6,-77.48 53.2,-19.27 112.95,-28.91 179.24,-28.91zm-80.95 878.86c69.38,0 125.28,-20.43 167.68,-61.29 42.4,-40.86 63.6,-93.66 63.6,-158.42l0 -46.25c-78.63,0 -141.85,3.47 -189.65,10.41 -47.8,6.94 -85.18,16.96 -112.17,30.07 -26.98,13.11 -45.1,28.9 -54.35,47.41 -9.26,18.5 -13.88,39.32 -13.88,62.45 0,29.29 13.11,55.89 39.32,79.79 26.21,23.9 59.37,35.85 99.45,35.85z"/>
   <path id="6" class="fil2" d="M10164.83 1958.17c-46.25,0 -87.88,-5.78 -124.89,-17.34 -37,-11.56 -68.62,-25.06 -94.83,-40.47 -30.84,-16.96 -57.81,-36.24 -80.95,-57.82l-46.25 104.08 -196.59 0 0 -1457.05 265.98 0 0 485.68c21.58,-18.51 46.25,-35.46 74.01,-50.88 24.67,-12.34 53.58,-24.29 86.73,-35.85 33.15,-11.57 72.08,-17.35 116.79,-17.35 66.3,0 129.51,13.49 189.65,40.47 60.14,26.99 112.94,64.76 158.42,113.33 45.49,48.57 81.72,106 108.7,172.31 26.99,66.3 40.47,138.77 40.47,217.4 0,78.63 -13.49,151.1 -40.47,217.4 -26.98,66.3 -63.22,123.73 -108.7,172.3 -45.49,48.57 -98.29,86.35 -158.42,113.33 -60.14,26.99 -123.35,40.47 -189.65,40.47zm-300.66 -543.5c0,87.88 25.44,158.03 76.32,210.46 50.88,52.42 114.09,78.63 189.65,78.63 75.55,0 138.77,-26.21 189.65,-78.63 50.88,-52.42 76.32,-122.57 76.32,-210.46 0,-87.89 -25.44,-158.04 -76.32,-210.47 -50.88,-52.42 -114.09,-78.63 -189.65,-78.63 -75.55,0 -138.77,26.21 -189.65,78.63 -50.88,52.42 -76.32,122.57 -76.32,210.47z"/>
   <polygon id="7" class="fil2" points="11072.6,1946.6 10806.62,1946.6 10806.62,489.56 11072.6,489.56 "/>
   <path id="8" class="fil2" d="M12223.2 1622.81c-13.88,40.09 -35.08,80.18 -63.6,120.27 -28.52,40.08 -63.22,75.93 -104.08,107.54 -40.85,31.61 -87.11,57.44 -138.76,77.49 -51.65,20.04 -107.55,30.06 -167.68,30.06 -72.46,0 -140.69,-14.26 -204.68,-42.79 -63.99,-28.52 -120.27,-67.45 -168.84,-116.79 -48.57,-49.34 -87.11,-106.77 -115.64,-172.31 -28.52,-65.53 -42.79,-136.07 -42.79,-211.61 0,-75.55 14.26,-146.09 42.79,-211.62 28.52,-65.53 67.07,-122.96 115.64,-172.31 48.57,-49.33 104.84,-88.27 168.84,-116.79 63.98,-28.52 132.21,-42.79 204.68,-42.79 69.38,0 134.91,13.11 196.58,39.32 61.68,26.21 115.64,63.22 161.9,111.01 46.25,47.8 82.87,105.23 109.86,172.31 26.98,67.07 40.47,140.69 40.47,220.87 0,12.33 -0.78,24.28 -2.31,35.85 -1.54,11.56 -3.09,22.74 -4.62,33.54 -1.54,12.33 -3.09,23.9 -4.63,34.69l-740.08 0c12.33,52.42 38.54,96.36 78.63,131.82 40.08,35.46 94.82,53.19 164.2,53.19 35.46,0 65.15,-3.85 89.05,-11.56 23.89,-7.7 44.32,-16.96 61.28,-27.76 18.51,-12.33 33.92,-26.21 46.25,-41.63l277.54 0zm-474.12 -497.24c-69.38,0 -126.04,20.04 -169.98,60.14 -43.95,40.08 -72.09,89.43 -84.42,148.02l508.81 0c-12.34,-58.59 -40.47,-107.93 -84.41,-148.02 -43.95,-40.09 -100.61,-60.14 -169.99,-60.14z"/>
  </g>
 </g>
</svg>
